inDegrees=no
num_controls=7
num_derivatives=13
num_iterations=94
num_multipliers=7
num_parameters=0
num_slacks=7
num_states=26
objective=0.454557
objective_accelerations=0.044234
objective_balance=0.000806
objective_effort=0.036232
objective_height=0.367186
objective_ligament=0.006100
solver_duration=1065.047791
status=Solve_Succeeded
success=true
DataType=double
version=3
OpenSimVersion=4.5
endheader
time	/jointset/ground_pelvis/pelvis_tilt/value	/jointset/ground_pelvis/pelvis_tx/value	/jointset/ground_pelvis/pelvis_ty/value	/jointset/hip_r/hip_flexion_r/value	/jointset/hip_r/hip_adduction_r/value	/jointset/hip_r/hip_rotation_r/value	/jointset/back/lumbar_extension/value	/jointset/patellofemoral_r/patellar_flexion_r/value	/jointset/knee_r/knee_flexion_r/value	/jointset/knee_r/knee_adduction_r/value	/jointset/knee_r/knee_rotation_r/value	/jointset/ankle_r/ankle_angle_r/value	/jointset/subtalar_r/subtalar_angle_r/value	/jointset/ground_pelvis/pelvis_tilt/speed	/jointset/ground_pelvis/pelvis_tx/speed	/jointset/ground_pelvis/pelvis_ty/speed	/jointset/hip_r/hip_flexion_r/speed	/jointset/hip_r/hip_adduction_r/speed	/jointset/hip_r/hip_rotation_r/speed	/jointset/back/lumbar_extension/speed	/jointset/patellofemoral_r/patellar_flexion_r/speed	/jointset/knee_r/knee_flexion_r/speed	/jointset/knee_r/knee_adduction_r/speed	/jointset/knee_r/knee_rotation_r/speed	/jointset/ankle_r/ankle_angle_r/speed	/jointset/subtalar_r/subtalar_angle_r/speed	/forceset/tau_hip_flexion_r	/forceset/tau_hip_adduction_r	/forceset/tau_hip_rotation_r	/forceset/tau_knee_flexion_r	/forceset/tau_ankle_angle_r	/forceset/tau_subtalar_angle_r	/forceset/tau_lumbar_extension	lambda_cid13_p0	lambda_cid14_p0	lambda_cid14_p1	lambda_cid14_p2	lambda_cid14_p3	lambda_cid14_p4	lambda_cid14_p5	/jointset/ground_pelvis/pelvis_tilt/accel	/jointset/ground_pelvis/pelvis_tx/accel	/jointset/ground_pelvis/pelvis_ty/accel	/jointset/hip_r/hip_flexion_r/accel	/jointset/hip_r/hip_adduction_r/accel	/jointset/hip_r/hip_rotation_r/accel	/jointset/back/lumbar_extension/accel	/jointset/patellofemoral_r/patellar_flexion_r/accel	/jointset/knee_r/knee_flexion_r/accel	/jointset/knee_r/knee_adduction_r/accel	/jointset/knee_r/knee_rotation_r/accel	/jointset/ankle_r/ankle_angle_r/accel	/jointset/subtalar_r/subtalar_angle_r/accel	gamma_cid13_p0	gamma_cid14_p0	gamma_cid14_p1	gamma_cid14_p2	gamma_cid14_p3	gamma_cid14_p4	gamma_cid14_p5
0.5	-0.1230626953958478	0.03411926021230958	0.8147121269902329	0.8459665226074359	-0.2517737972940856	-0.05652742564135555	-0.6436820241515108	0.9372171391957296	0.937217139195729	0.06306225618084503	0.1742307396984348	0.289280110077322	0.09115105457870443	-0.3180919932885856	-0.1914153597829797	-0.4612726403805318	1.74288013545356	-0.03981745824201458	0.4983798300156206	-0.7362219025358135	1.874153321937442	1.874153321937435	-0.08454500035501537	-0.001791425622254609	0.5260514435441682	0.109118751445116	-0.1874315963613425	0.003184465491787174	0.03519959505653689	-0.2924678910327754	-0.0004339302260751405	-0.01383399585995054	0.2344551480087416	-8.877086091874107	-43.46442424088561	-12.22929599703677	0.7849152605952402	-3.688154277537098	-644.8168904164505	58.9542433663774	0.2331426814216427	0.5423533665241566	-0.3519218112996	-1.210545605301385	0.2158539138535323	-0.1847675957022515	1.74956205224514	-1.427846981258514	-1.427846981258513	0.4270027463231368	-0.006776179933849388	-0.4855494779883552	0.2364792036750975	-5.971314906474939e-08	1.970949563619772e-08	1.241442631432801e-06	-3.034553714578042e-08	-1.397644186099935e-07	-1.232168048065922e-07	8.151537046806514e-07
0.51	-0.1262313013411321	0.03223237337093677	0.8100828599344473	0.8633321138555554	-0.2521615263450131	-0.05155481531794658	-0.6509561740279458	0.955884476842888	0.9558844768428864	0.0622377711300087	0.1742140795961626	0.294515334821672	0.09225331207190701	-0.3155816413001949	-0.1859481346382438	-0.4644778733898646	1.730005595024071	-0.03772121120323785	0.4960769939617062	-0.718525757105978	1.859059195488828	1.859059195488826	-0.08038666291200626	-0.001541090814540872	0.5209173954204097	0.1113262089166841	-0.1933731896574087	0.004294712538147062	0.03589784434799227	-0.2971683503698376	-0.001579165358031072	-0.0136745650838903	0.2400538498423679	-7.921963489051262	-44.11925017000815	-12.42048514980951	0.981905815928915	-3.570766958381359	-649.3271034315154	59.10728071349064	0.267119358898248	0.5509566687032955	-0.2894142373676293	-1.360781339726201	0.2076700622056834	-0.2629376880498681	1.791988135125332	-1.588435422871775	-1.588435422870984	0.4052391719133103	0.04090549128507914	-0.5387860874441173	0.212115281804839	-5.613362830815055e-08	2.985631603194526e-08	1.348400927910582e-06	3.825185048598471e-08	-1.576035624998604e-07	-1.177940146391946e-07	8.929410061219933e-07
0.52	-0.1293733761862629	0.03040056869706233	0.8054246225102448	0.8805619850837889	-0.2525280609328902	-0.04660721257063918	-0.6580508929807281	0.9743932252363176	0.9743932252363168	0.06145386743932545	0.1741999162780001	0.2996969283632094	0.09337749139240664	-0.3127857732577849	-0.1803989262833068	-0.4670667140639003	1.71573613147644	-0.03557856563182286	0.493378314795238	-0.7003357178052398	1.842435471191858	1.842435471191861	-0.07642872832405626	-0.001292068800383526	0.5153252029816705	0.1135031169045392	-0.1993147829534766	0.005404959584506049	0.03659609363945016	-0.3018688097069002	-0.002724400489987347	-0.0135151343078316	0.2456525516759926	-7.024460969878311	-44.77341330376915	-12.60640580924667	1.1721710037352	-3.478136789937097	-653.829376503364	59.29343358007754	0.2902458922255087	0.5587500085643804	-0.2286433442401637	-1.489530228929856	0.2251336203811845	-0.2639362182130341	1.848340826425633	-1.733766550929643	-1.733766550929648	0.3869221753113174	-0.007038738645126929	-0.5771783409844902	0.230369306932516	-4.979090840598321e-08	3.304979101611081e-08	1.310877109243874e-06	7.414423097565166e-08	-1.578354822534709e-07	-1.052591600641253e-07	8.794094246661499e-07
0.53	-0.1324860978762305	0.02862460752200964	0.8007435911146713	0.8976423440279656	-0.2528729748830072	-0.04168857655236206	-0.6649613585977177	0.9927282898176961	0.9927282898176945	0.06070847269051306	0.1741882264497071	0.3048203918982306	0.09452324258439443	-0.3097101596154907	-0.1747847655906222	-0.4690346450444901	1.700110142978708	-0.03340387035337613	0.4902843377372684	-0.6816905547203969	1.824338093476107	1.824338093476114	-0.07267922845596815	-0.001041837570818115	0.5092974170118501	0.1156313524842569	-0.2051463735136996	0.006432627151069532	0.03725146222143576	-0.3066243796613302	-0.003938074033364164	-0.01338783529944705	0.2511184224251425	-6.185381904918636	-45.45627947888772	-12.8097126789577	1.363387004710299	-3.31131941905938	-658.3541666836218	59.46662741322256	0.3234846160544272	0.5639989786626467	-0.1651497090608077	-1.632955081807107	0.2137797770286771	-0.3419068796324125	1.882631680346958	-1.883616831176884	-1.883616831176316	0.3647877059280459	0.04171997626655476	-0.6261273596145094	0.2018990163153273	-4.367874163133893e-08	3.547666101619455e-08	1.264402885751299e-06	1.048473841432134e-07	-1.568254495544292e-07	-9.276956226759146e-08	8.606630473289626e-07
0.54	-0.135566610326611	0.02690503792969223	0.7960460240624735	0.914559678702842	-0.2531961134212498	-0.03680283599067297	-0.6716833670576923	1.010875201932061	1.01087520193206	0.0599997377030539	0.1741791721182122	0.3098814678466268	0.09568984579874414	-0.3063439253402739	-0.1691206097362506	-0.470373845388779	1.683131277616488	-0.03122348325683845	0.4867992234775586	-0.6626442864022207	1.804804977789193	1.804804977789204	-0.06909677605306014	-0.0007649694408856738	0.5028476856566818	0.1176735213769318	-0.210977964073924	0.007460294717632347	0.03790683080342507	-0.3113799496157603	-0.005151747576741231	-0.0132605362910637	0.2565842931742912	-5.404970026277431	-46.13899777011775	-13.0079544766113	1.548039512839095	-3.169334210277068	-662.8788973035986	59.67110488479647	0.3483700188100256	0.5687490409017594	-0.1028972169800014	-1.760105601827246	0.2262719839993728	-0.3421636585611182	1.928561873092287	-2.020914145162234	-2.020914145162234	0.353512682275303	-0.001711358571720127	-0.6615674180540445	0.2131559695239438	-3.78216549126776e-08	3.705537231048563e-08	1.208026086706701e-06	1.298092645288714e-07	-1.544413418013894e-07	-8.033003580050097e-08	8.361471085911391e-07
